# xmcd
#
# Track frame offsets:
#	150
#	11016
#	32304
#	60735
#	75125
#	86814
#	104318
#	128855
#	144949
#	161848
#	178214
#
# Disc length: 2811 seconds
#
# Revision: 1
# Processed by: cddbd v1.5.1PL0 Copyright (c) Steve Scherf et al.
# Submitted via: EasyCDDAExtractor 7.0.6.1
#
DISCID=830af90b
DTITLE=Billy Joe Shaver - Billy And The Kid
DYEAR=2004
DGENRE=Country
TTITLE0=Fame
TTITLE1=Lighting A Torch
TTITLE2=Baptism Of Fire
TTITLE3=Eagle On The Ground
TTITLE4=Drown In Love
TTITLE5=If It Don't Kill You
TTITLE6=Window Rock
TTITLE7=Velvet Chains
TTITLE8=King Of Fools
TTITLE9=Step On Up
TTITLE10=Necessary Evil
EXTD=
EXTT0=
EXTT1=
EXTT2=
EXTT3=
EXTT4=
EXTT5=
EXTT6=
EXTT7=
EXTT8=
EXTT9=
EXTT10=
PLAYORDER=
